<?xml version="1.0" encoding="UTF-8" standalone="no"?>
<svg
   width="72"
   height="107"
   viewBox="0 0 72 107"
   fill="none"
   version="1.1"
   id="svg17"
   xmlns="http://www.w3.org/2000/svg"
   xmlns:svg="http://www.w3.org/2000/svg">
  <defs
     id="defs17">
    <rect
       x="18.545511"
       y="39.061275"
       width="34.908886"
       height="17.372536"
       id="rect18" />
  </defs>
  <path
     d="m 14.1818,37.636378 c -7.6365201,0 -9.27274,7.636401 -9.27274,15.818201 M 57.818198,37.636378 c 7.0909,0 9.272702,7.636401 9.272702,15.818201"
     stroke="#178ace"
     stroke-width="2"
     id="path1"
     style="stroke:#000000;stroke-opacity:0.2" />
  <rect
     y="53.454578"
     width="9.8181801"
     height="14.1818"
     fill="#C4C4C4"
     id="rect1"
     style="fill:#000000;fill-opacity:0.2"
     x="0" />
  <rect
     x="62.181801"
     y="53.454578"
     width="9.8181801"
     height="14.1818"
     fill="#C4C4C4"
     id="rect3"
     style="fill:#000000;fill-opacity:0.2" />
  <path
     d="m 2.18176,67.636378 h 2.18182 v 2.2727 c 0,0.5523 -0.44771,1 -1,1 H 3.18176 c -0.55228,0 -1,-0.4477 -1,-1 z"
     fill="#178ACE"
     id="path4"
     style="fill:#000000;fill-opacity:0.2" />
  <path
     d="m 64.3636,67.636378 h 2.1819 v 2.2727 c 0,0.5523 -0.4477,1 -1,1 h -0.1819 c -0.5522,0 -1,-0.4477 -1,-1 z"
     fill="#178ACE"
     id="path5"
     style="fill:#000000;fill-opacity:0.2" />
  <path
     d="m 5.45459,67.636378 h 2.18182 v 2.2727 c 0,0.5523 -0.44772,1 -1,1 H 6.45459 c -0.55229,0 -1,-0.4477 -1,-1 z"
     fill="#178ACE"
     id="path6"
     style="fill:#000000;fill-opacity:0.2" />
  <path
     d="m 67.6364,67.636378 h 2.1818 v 2.2727 c 0,0.5523 -0.4477,1 -1,1 h -0.1818 c -0.5523,0 -1,-0.4477 -1,-1 z"
     fill="#178ACE"
     id="path7"
     style="fill:#000000;fill-opacity:0.2" />
  <path
     id="rect7"
     style="fill:#000000;fill-opacity:0.2"
     d="m 16.181641,32.726563 c -1.107999,0 -2,0.892001 -2,2 V 70 c 0,1.107999 0.892001,2 2,2 h 39.636718 c 1.107999,0 2,-0.892001 2,-2 V 34.726563 c 0,-1.107999 -0.892001,-2 -2,-2 z m 4.363281,4.365234 h 30.910156 c 1.107999,0 2,0.892001 2,2 v 17.816406 c 0,1.107999 -0.892001,2 -2,2 H 20.544922 c -1.107999,0 -2,-0.892001 -2,-2 V 39.091797 c 0,-1.107999 0.892001,-2 2,-2 z" />
  <rect
     x="22.9091"
     y="71.999977"
     width="6.5454502"
     height="19.6364"
     fill="#24253F"
     id="rect9"
     style="fill:#000000;fill-opacity:0.2" />
  <rect
     x="20.727301"
     y="92.72728"
     width="10.9091"
     height="8.7272701"
     fill="#C4C4C4"
     id="rect10"
     style="fill:#000000;fill-opacity:0.2" />
  <path
     d="m 17.4546,105.54498 c 0,-1.656 1.3431,-3 3,-3 h 11.4545 c 1.6569,0 3,1.344 3,3 v 1.364 H 17.4546 Z"
     fill="#444458"
     id="path11"
     style="fill:#000000;fill-opacity:0.2" />
  <rect
     x="40.3638"
     y="92.72728"
     width="10.9091"
     height="8.7272701"
     fill="#C4C4C4"
     id="rect12"
     style="fill:#000000;fill-opacity:0.2" />
  <rect
     x="42.545502"
     y="71.999977"
     width="6.5454502"
     height="19.6364"
     fill="#24253F"
     id="rect14"
     style="fill:#000000;fill-opacity:0.2" />
  <path
     d="m 37.0911,105.54498 c 0,-1.656 1.3431,-3 3,-3 h 11.4545 c 1.6569,0 3,1.344 3,3 v 1.364 H 37.0911 Z"
     fill="#444458"
     id="path14"
     style="fill:#000000;fill-opacity:0.2" />
  <path
     id="path15"
     style="fill:#000000;fill-opacity:0.2"
     d="m 16.181641,0 c -1.104599,0 -2,0.89543211 -2,2 v 22.181641 c 0,1.104599 0.895401,2 2,2 h 6.726562 v 2.363281 c 0,1.104499 0.895401,2 2,2 h 22.181641 c 1.104599,0 2,-0.895501 2,-2 v -2.363281 h 6.728515 c 1.104599,0 2,-0.895401 2,-2 V 2 c 0,-1.10456789 -0.895401,-2 -2,-2 z m 4.363281,4.3632813 h 30.910156 c 1.107999,0 2,0.8920011 2,2 V 19.818359 c 0,1.107999 -0.892001,2 -2,2 H 20.544922 c -1.107999,0 -2,-0.892001 -2,-2 V 6.3632813 c 0,-1.1079989 0.892001,-2 2,-2 z" />
  <path
     d="m 27.8181,16.363578 c 0,0 3.8182,2.7273 8.1818,2.7273 4.3637,0 8.1819,-2.7273 8.1819,-2.7273"
     stroke="#24253F"
     stroke-width="2"
     stroke-linejoin="round"
     id="path16"
     style="fill:none;fill-opacity:0.5;stroke:#000000;stroke-opacity:0.2" />
  <circle
     cx="27.8181"
     cy="10.363578"
     r="2.7272699"
     fill="#0FB900"
     id="circle16"
     style="fill:#000000;fill-opacity:0.2" />
  <circle
     cx="44.181702"
     cy="10.363578"
     r="2.7272699"
     fill="#0FB900"
     id="circle17"
     style="fill:#000000;fill-opacity:0.2" />
  <text
     xml:space="preserve"
     id="text18"
     style="white-space:pre;shape-inside:url(#rect18);fill:#000000;fill-opacity:0.2;stroke:none;stroke-opacity:0.5"
     transform="matrix(1.2561325,0,0,1.2561325,-4.6133248,-8.914846)"><tspan
       x="18.544922"
       y="49.677734"
       id="tspan1">UNO</tspan></text>
</svg>
