<?xml version="1.0" encoding="UTF-8" standalone="no"?>
<svg
   width="72"
   height="107"
   viewBox="0 0 72 107"
   fill="none"
   version="1.1"
   id="svg17"
   sodipodi:docname="flitz_nano.svg"
   inkscape:version="1.1.2 (0a00cf5339, 2022-02-04)"
   xmlns:inkscape="http://www.inkscape.org/namespaces/inkscape"
   xmlns:sodipodi="http://sodipodi.sourceforge.net/DTD/sodipodi-0.dtd"
   xmlns="http://www.w3.org/2000/svg"
   xmlns:svg="http://www.w3.org/2000/svg">
  <sodipodi:namedview
     id="namedview25"
     pagecolor="#ffffff"
     bordercolor="#666666"
     borderopacity="1.0"
     inkscape:pageshadow="2"
     inkscape:pageopacity="0.0"
     inkscape:pagecheckerboard="0"
     showgrid="false"
     inkscape:zoom="3.8457944"
     inkscape:cx="38.223572"
     inkscape:cy="71.246658"
     inkscape:window-width="1920"
     inkscape:window-height="1008"
     inkscape:window-x="0"
     inkscape:window-y="0"
     inkscape:window-maximized="1"
     inkscape:current-layer="svg17" />
  <defs
     id="defs17">
    <rect
       x="18.545511"
       y="39.061275"
       width="65.661438"
       height="19.306461"
       id="rect18" />
  </defs>
  <path
     d="m 14.1818,37.636378 c -7.6365201,0 -9.27274,7.636401 -9.27274,15.818201 M 57.818198,37.636378 c 7.0909,0 9.272702,7.636401 9.272702,15.818201"
     stroke="#178ace"
     stroke-width="2"
     id="path1"
     style="stroke:#000000;stroke-opacity:0.2;opacity:0.35" />
  <rect
     y="53.454578"
     width="9.8181801"
     height="14.1818"
     fill="#C4C4C4"
     id="rect1"
     style="fill:#000000;fill-opacity:0.2;opacity:0.35"
     x="0" />
  <rect
     x="62.181801"
     y="53.454578"
     width="9.8181801"
     height="14.1818"
     fill="#C4C4C4"
     id="rect3"
     style="fill:#000000;fill-opacity:0.2;opacity:0.35" />
  <path
     d="m 2.18176,67.636378 h 2.18182 v 2.2727 c 0,0.5523 -0.44771,1 -1,1 H 3.18176 c -0.55228,0 -1,-0.4477 -1,-1 z"
     fill="#178ACE"
     id="path4"
     style="fill:#000000;fill-opacity:0.2;opacity:0.35" />
  <path
     d="m 64.3636,67.636378 h 2.1819 v 2.2727 c 0,0.5523 -0.4477,1 -1,1 h -0.1819 c -0.5522,0 -1,-0.4477 -1,-1 z"
     fill="#178ACE"
     id="path5"
     style="fill:#000000;fill-opacity:0.2;opacity:0.35" />
  <path
     d="m 5.45459,67.636378 h 2.18182 v 2.2727 c 0,0.5523 -0.44772,1 -1,1 H 6.45459 c -0.55229,0 -1,-0.4477 -1,-1 z"
     fill="#178ACE"
     id="path6"
     style="fill:#000000;fill-opacity:0.2;opacity:0.35" />
  <path
     d="m 67.6364,67.636378 h 2.1818 v 2.2727 c 0,0.5523 -0.4477,1 -1,1 h -0.1818 c -0.5523,0 -1,-0.4477 -1,-1 z"
     fill="#178ACE"
     id="path7"
     style="fill:#000000;fill-opacity:0.2;opacity:0.35" />
  <path
     id="rect7"
     style="fill:#000000;fill-opacity:0.2;opacity:0.35"
     d="m 16.181641,32.726563 c -1.107999,0 -2,0.892001 -2,2 V 70 c 0,1.107999 0.892001,2 2,2 h 39.636718 c 1.107999,0 2,-0.892001 2,-2 V 34.726563 c 0,-1.107999 -0.892001,-2 -2,-2 z m 4.363281,4.365234 h 30.910156 c 1.107999,0 2,0.892001 2,2 v 17.816406 c 0,1.107999 -0.892001,2 -2,2 H 20.544922 c -1.107999,0 -2,-0.892001 -2,-2 V 39.091797 c 0,-1.107999 0.892001,-2 2,-2 z" />
  <rect
     x="22.9091"
     y="71.999977"
     width="6.5454502"
     height="19.6364"
     fill="#24253F"
     id="rect9"
     style="fill:#000000;fill-opacity:0.2;opacity:0.35" />
  <rect
     x="20.727301"
     y="92.72728"
     width="10.9091"
     height="8.7272701"
     fill="#C4C4C4"
     id="rect10"
     style="fill:#000000;fill-opacity:0.2;opacity:0.35" />
  <path
     d="m 17.4546,105.54498 c 0,-1.656 1.3431,-3 3,-3 h 11.4545 c 1.6569,0 3,1.344 3,3 v 1.364 H 17.4546 Z"
     fill="#444458"
     id="path11"
     style="fill:#000000;fill-opacity:0.2;opacity:0.35" />
  <rect
     x="40.3638"
     y="92.72728"
     width="10.9091"
     height="8.7272701"
     fill="#C4C4C4"
     id="rect12"
     style="fill:#000000;fill-opacity:0.2;opacity:0.35" />
  <rect
     x="42.545502"
     y="71.999977"
     width="6.5454502"
     height="19.6364"
     fill="#24253F"
     id="rect14"
     style="fill:#000000;fill-opacity:0.2;opacity:0.35" />
  <path
     d="m 37.0911,105.54498 c 0,-1.656 1.3431,-3 3,-3 h 11.4545 c 1.6569,0 3,1.344 3,3 v 1.364 H 37.0911 Z"
     fill="#444458"
     id="path14"
     style="fill:#000000;fill-opacity:0.2;opacity:0.35" />
  <path
     id="path15"
     style="fill:#000000;fill-opacity:0.2;opacity:0.35"
     d="m 16.181641,0 c -1.104599,0 -2,0.89543211 -2,2 v 22.181641 c 0,1.104599 0.895401,2 2,2 h 6.726562 v 2.363281 c 0,1.104499 0.895401,2 2,2 h 22.181641 c 1.104599,0 2,-0.895501 2,-2 v -2.363281 h 6.728515 c 1.104599,0 2,-0.895401 2,-2 V 2 c 0,-1.10456789 -0.895401,-2 -2,-2 z m 4.363281,4.3632813 h 30.910156 c 1.107999,0 2,0.8920011 2,2 V 19.818359 c 0,1.107999 -0.892001,2 -2,2 H 20.544922 c -1.107999,0 -2,-0.892001 -2,-2 V 6.3632813 c 0,-1.1079989 0.892001,-2 2,-2 z" />
  <path
     d="m 27.8181,16.363578 c 0,0 3.8182,2.7273 8.1818,2.7273 4.3637,0 8.1819,-2.7273 8.1819,-2.7273"
     stroke="#24253F"
     stroke-width="2"
     stroke-linejoin="round"
     id="path16"
     style="fill:none;fill-opacity:0.5;stroke:#000000;stroke-opacity:0.2;opacity:0.35" />
  <circle
     cx="27.8181"
     cy="10.363578"
     r="2.7272699"
     fill="#0FB900"
     id="circle16"
     style="fill:#000000;fill-opacity:0.2;opacity:0.35" />
  <circle
     cx="44.181702"
     cy="10.363578"
     r="2.7272699"
     fill="#0FB900"
     id="circle17"
     style="fill:#000000;fill-opacity:0.2;opacity:0.35" />
  <g
     aria-label="NANO"
     transform="matrix(1.0030943,0,0,1.0030943,-0.71385913,1.8040675)"
     id="text18"
     style="white-space:pre;shape-inside:url(#rect18);fill:#000000;fill-opacity:0.2;stroke-opacity:0.5;opacity:0.35">
    <path
       d="m 19.722656,40.929687 h 1.59375 l 3.878906,7.31836 v -7.31836 h 1.148438 v 8.748047 H 24.75 l -3.878906,-7.318359 v 7.318359 h -1.148438 z"
       id="path27" />
    <path
       d="m 31.623047,42.095703 -1.605469,4.353516 h 3.216797 z m -0.667969,-1.166016 h 1.341797 l 3.333984,8.748047 h -1.230468 l -0.796875,-2.24414 h -3.94336 l -0.796875,2.24414 h -1.248047 z"
       id="path29" />
    <path
       d="m 36.908203,40.929687 h 1.59375 l 3.878906,7.31836 v -7.31836 h 1.148438 v 8.748047 h -1.59375 l -3.878906,-7.318359 v 7.318359 h -1.148438 z"
       id="path31" />
    <path
       d="m 49.435547,41.732422 q -1.289063,0 -2.050781,0.960937 -0.75586,0.960938 -0.75586,2.619141 0,1.652344 0.75586,2.613281 0.761718,0.960938 2.050781,0.960938 1.289062,0 2.039062,-0.960938 0.75586,-0.960937 0.75586,-2.613281 0,-1.658203 -0.75586,-2.619141 -0.75,-0.960937 -2.039062,-0.960937 z m 0,-0.960938 q 1.839844,0 2.941406,1.236328 1.101563,1.230469 1.101563,3.304688 0,2.068359 -1.101563,3.304687 -1.101562,1.230469 -2.941406,1.230469 -1.845703,0 -2.953125,-1.230469 -1.101563,-1.230468 -1.101563,-3.304687 0,-2.074219 1.101563,-3.304688 1.107422,-1.236328 2.953125,-1.236328 z"
       id="path33" />
  </g>
</svg>
