<?xml version="1.0" encoding="UTF-8" standalone="no"?>
<svg
   width="129"
   height="82"
   viewBox="0 0 129 82"
   fill="none"
   version="1.1"
   id="svg29"
   sodipodi:docname="orig_nano.svg"
   inkscape:export-filename="orig_uno.svg"
   inkscape:export-xdpi="96"
   inkscape:export-ydpi="96"
   inkscape:version="1.1.2 (0a00cf5339, 2022-02-04)"
   xmlns:inkscape="http://www.inkscape.org/namespaces/inkscape"
   xmlns:sodipodi="http://sodipodi.sourceforge.net/DTD/sodipodi-0.dtd"
   xmlns="http://www.w3.org/2000/svg"
   xmlns:svg="http://www.w3.org/2000/svg">
  <defs
     id="defs29">
    <rect
       x="84.616135"
       y="15.370143"
       width="44.275471"
       height="16.05389"
       id="rect66" />
  </defs>
  <sodipodi:namedview
     id="namedview29"
     pagecolor="#ffffff"
     bordercolor="#000000"
     borderopacity="0.25"
     inkscape:showpageshadow="2"
     inkscape:pageopacity="0.0"
     inkscape:pagecheckerboard="0"
     inkscape:deskcolor="#d1d1d1"
     inkscape:pageshadow="2"
     showgrid="false"
     inkscape:zoom="3.5484687"
     inkscape:cx="38.608203"
     inkscape:cy="62.280387"
     inkscape:window-width="1920"
     inkscape:window-height="1008"
     inkscape:window-x="0"
     inkscape:window-y="0"
     inkscape:window-maximized="1"
     inkscape:current-layer="svg29" />
  <g
     id="g29"
     transform="matrix(0.81790719,0,0,0.81790719,0,14.828472)"
     style="opacity:0.35">
    <path
       d="M 80.417774,16.316601 C 80.417774,6.2513008 69.0188,2.34848 57.7211,5.22427 46.4233,8.10006 41.9042,17.753812 41.9042,32.132812"
       stroke="#444458"
       stroke-width="1.5"
       id="path1"
       style="stroke:#000000;stroke-opacity:0.2"
       sodipodi:nodetypes="ccc" />
    <path
       d="M 81.138512,16.316601 C 81.138512,6.2512808 68.403,-1.96519 55.2564,2.55389 42.1099,7.07297 39.404859,17.753812 39.404859,32.132812"
       stroke="#E0E0E0"
       stroke-width="1.5"
       id="path2"
       style="stroke:#000000;stroke-opacity:0.2"
       sodipodi:nodetypes="ccc" />
    <rect
       x="79.495201"
       y="16.316601"
       width="3.2866199"
       height="9.8598804"
       fill="#B9B9B9"
       id="rect2"
       style="fill:#000000;fill-opacity:0.2" />
    <path
       d="M 77.030312,16.3165 C 77.030312,6.2511697 62.2405,-3.1978 49.9156,2.75926 37.5908,8.71631 37.5908,17.753812 37.5908,32.132812"
       stroke="#178ACE"
       stroke-width="1.5"
       id="path3"
       style="stroke:#000000;stroke-opacity:0.2"
       sodipodi:nodetypes="ccc" />
    <rect
       x="75.387001"
       y="16.3165"
       width="3.2866199"
       height="9.8598804"
       fill="#B9B9B9"
       id="rect4"
       style="fill:#000000;fill-opacity:0.2" />
    <path
       id="rect6"
       style="fill:#000000;fill-opacity:0.1"
       d="m 34.304688,32.132812 v 14.791016 l 10.886413,-5.26e-4 v -14.79049 z m 5.544921,2.464844 c 1.134898,-3.03e-4 2.054991,0.91979 2.054688,2.054688 3.02e-4,1.134898 -0.91979,2.05499 -2.054688,2.054687 -1.134135,-7.76e-4 -2.053036,-0.920552 -2.052734,-2.054687 -3.03e-4,-1.134135 0.918599,-2.053912 2.052734,-2.054688 z"
       sodipodi:nodetypes="cccccccccc" />
    <path
       id="rect7"
       style="fill:#000000;fill-opacity:0.3"
       d="M 45.191406,26.175781 V 46.923828 H 88.328125 V 26.175781 Z m 10.578125,2.054688 a 8.3192701,8.3192701 0 0 1 8.320313,8.320312 8.3192701,8.3192701 0 0 1 -8.320313,8.31836 8.3192701,8.3192701 0 0 1 -8.318359,-8.31836 8.3192701,8.3192701 0 0 1 8.318359,-8.320312 z m 22.390625,0 a 8.3192701,8.3192701 0 0 1 8.31836,8.320312 8.3192701,8.3192701 0 0 1 -8.31836,8.31836 8.3192701,8.3192701 0 0 1 -8.320312,-8.31836 8.3192701,8.3192701 0 0 1 8.320312,-8.320312 z" />
    <circle
       cx="55.769798"
       cy="36.5499"
       r="6.26513"
       fill="#444458"
       id="circle9"
       style="fill:none;stroke:#000000;stroke-opacity:0.2" />
    <circle
       cx="78.159798"
       cy="36.5499"
       r="6.26513"
       fill="#444458"
       id="circle13"
       style="fill:none;stroke:#000000;stroke-opacity:0.2" />
    <path
       id="rect15"
       d="m 31.222656,46.923828 v 8.216797 H 73.126953 83.398438 V 46.923828 H 73.126953 Z"
       style="fill:#000000;fill-opacity:0.2" />
    <path
       id="rect17"
       style="fill:#000000;fill-opacity:0.2"
       d="m 8.2167969,46.923828 v 8.216797 H 0 v 3.285156 H 8.2167969 V 69.929688 H 0 v 3.287109 h 8.2167969 v 8.216797 H 19.720703 V 73.216797 H 109.2793 v 8.216797 h 11.5039 V 73.216797 H 129 v -3.287109 h -8.2168 V 58.425781 H 129 v -3.285156 h -8.2168 v -8.216797 h -11.5039 v 8.216797 H 19.720703 V 46.923828 Z M 19.720703,58.425781 H 109.2793 V 69.929688 H 19.720703 Z" />
    <rect
       x="63.043098"
       y="73.216797"
       width="2.96176"
       height="5.6351466"
       fill="#5d5d5d"
       id="rect18"
       style="fill:#000000;fill-opacity:0.2;stroke-width:0.885121" />
    <rect
       x="27.730801"
       y="58.426498"
       width="73.5382"
       height="11.5032"
       fill="#444458"
       id="rect25"
       style="fill:#000000;fill-opacity:0.2" />
  </g>
  <rect
     style="fill:none;fill-opacity:0.1;stroke:#000000;stroke-width:1.4;stroke-linejoin:round;stroke-dasharray:none;stroke-opacity:0.2;opacity:0.35"
     id="rect29"
     width="37.252659"
     height="37.252659"
     x="82.279778"
     y="5.3901172" />
  <rect
     style="fill:none;fill-opacity:0.1;stroke:#000000;stroke-width:1.25795;stroke-linecap:butt;stroke-dasharray:none;stroke-opacity:0.2;opacity:0.35"
     id="rect30"
     width="1.9073486e-06"
     height="2.9338093"
     x="91.639519"
     y="1.8135886" />
  <rect
     style="fill:none;fill-opacity:0.1;stroke:#000000;stroke-width:1.25795;stroke-linecap:butt;stroke-dasharray:none;stroke-opacity:0.2;opacity:0.35"
     id="rect31"
     width="1.9073486e-06"
     height="2.9338093"
     x="94.728378"
     y="1.8135886" />
  <rect
     style="fill:none;fill-opacity:0.1;stroke:#000000;stroke-width:1.25795;stroke-linecap:butt;stroke-dasharray:none;stroke-opacity:0.2;opacity:0.35"
     id="rect32"
     width="1.9073486e-06"
     height="2.9338093"
     x="88.550659"
     y="1.8135886" />
  <rect
     style="fill:none;fill-opacity:0.1;stroke:#000000;stroke-width:1.25795;stroke-linecap:butt;stroke-dasharray:none;stroke-opacity:0.2;opacity:0.35"
     id="rect33"
     width="1.9073486e-06"
     height="2.9338093"
     x="100.90611"
     y="1.8135886" />
  <rect
     style="fill:none;fill-opacity:0.1;stroke:#000000;stroke-width:1.25795;stroke-linecap:butt;stroke-dasharray:none;stroke-opacity:0.2;opacity:0.35"
     id="rect34"
     width="1.9073486e-06"
     height="2.9338093"
     x="103.99496"
     y="1.8135886" />
  <rect
     style="fill:none;fill-opacity:0.1;stroke:#000000;stroke-width:1.25795;stroke-linecap:butt;stroke-dasharray:none;stroke-opacity:0.2;opacity:0.35"
     id="rect35"
     width="1.9073486e-06"
     height="2.9338093"
     x="97.817238"
     y="1.8135886" />
  <rect
     style="fill:none;fill-opacity:0.1;stroke:#000000;stroke-width:1.25795;stroke-linecap:butt;stroke-dasharray:none;stroke-opacity:0.2;opacity:0.35"
     id="rect36"
     width="1.9073486e-06"
     height="2.9338093"
     x="110.17269"
     y="1.8135886" />
  <rect
     style="fill:none;fill-opacity:0.1;stroke:#000000;stroke-width:1.25795;stroke-linecap:butt;stroke-dasharray:none;stroke-opacity:0.2;opacity:0.35"
     id="rect37"
     width="1.9073486e-06"
     height="2.9338093"
     x="113.26155"
     y="1.8135886" />
  <rect
     style="fill:none;fill-opacity:0.1;stroke:#000000;stroke-width:1.25795;stroke-linecap:butt;stroke-dasharray:none;stroke-opacity:0.2;opacity:0.35"
     id="rect38"
     width="1.9073486e-06"
     height="2.9338093"
     x="107.08382"
     y="1.8135886" />
  <rect
     style="fill:none;fill-opacity:0.1;stroke:#000000;stroke-width:1.25795;stroke-linecap:butt;stroke-dasharray:none;stroke-opacity:0.2;opacity:0.35"
     id="rect39"
     width="1.9073486e-06"
     height="2.9338093"
     x="91.639511"
     y="43.342777" />
  <rect
     style="fill:none;fill-opacity:0.1;stroke:#000000;stroke-width:1.25795;stroke-linecap:butt;stroke-dasharray:none;stroke-opacity:0.2;opacity:0.35"
     id="rect40"
     width="1.9073486e-06"
     height="2.9338093"
     x="94.728371"
     y="43.342777" />
  <rect
     style="fill:none;fill-opacity:0.1;stroke:#000000;stroke-width:1.25795;stroke-linecap:butt;stroke-dasharray:none;stroke-opacity:0.2;opacity:0.35"
     id="rect41"
     width="1.9073486e-06"
     height="2.9338093"
     x="88.550652"
     y="43.342777" />
  <rect
     style="fill:none;fill-opacity:0.1;stroke:#000000;stroke-width:1.25795;stroke-linecap:butt;stroke-dasharray:none;stroke-opacity:0.2;opacity:0.35"
     id="rect42"
     width="1.9073486e-06"
     height="2.9338093"
     x="100.90611"
     y="43.342777" />
  <rect
     style="fill:none;fill-opacity:0.1;stroke:#000000;stroke-width:1.25795;stroke-linecap:butt;stroke-dasharray:none;stroke-opacity:0.2;opacity:0.35"
     id="rect43"
     width="1.9073486e-06"
     height="2.9338093"
     x="103.99495"
     y="43.342777" />
  <rect
     style="fill:none;fill-opacity:0.1;stroke:#000000;stroke-width:1.25795;stroke-linecap:butt;stroke-dasharray:none;stroke-opacity:0.2;opacity:0.35"
     id="rect44"
     width="1.9073486e-06"
     height="2.9338093"
     x="97.81723"
     y="43.342777" />
  <rect
     style="fill:none;fill-opacity:0.1;stroke:#000000;stroke-width:1.25795;stroke-linecap:butt;stroke-dasharray:none;stroke-opacity:0.2;opacity:0.35"
     id="rect45"
     width="1.9073486e-06"
     height="2.9338093"
     x="110.17268"
     y="43.342777" />
  <rect
     style="fill:none;fill-opacity:0.1;stroke:#000000;stroke-width:1.25795;stroke-linecap:butt;stroke-dasharray:none;stroke-opacity:0.2;opacity:0.35"
     id="rect46"
     width="1.9073486e-06"
     height="2.9338093"
     x="113.26154"
     y="43.342777" />
  <rect
     style="fill:none;fill-opacity:0.1;stroke:#000000;stroke-width:1.25795;stroke-linecap:butt;stroke-dasharray:none;stroke-opacity:0.2;opacity:0.35"
     id="rect47"
     width="1.9073486e-06"
     height="2.9338093"
     x="107.08381"
     y="43.342777" />
  <rect
     style="fill:none;fill-opacity:0.1;stroke:#000000;stroke-width:1.25795;stroke-linecap:butt;stroke-dasharray:none;stroke-opacity:0.2;opacity:0.35"
     id="rect48"
     width="1.9073486e-06"
     height="2.9338093"
     x="14.749851"
     y="-123.16624"
     transform="rotate(90)" />
  <rect
     style="fill:none;fill-opacity:0.1;stroke:#000000;stroke-width:1.25795;stroke-linecap:butt;stroke-dasharray:none;stroke-opacity:0.2;opacity:0.35"
     id="rect49"
     width="1.9073486e-06"
     height="2.9338093"
     x="17.838711"
     y="-123.16624"
     transform="rotate(90)" />
  <rect
     style="fill:none;fill-opacity:0.1;stroke:#000000;stroke-width:1.25795;stroke-linecap:butt;stroke-dasharray:none;stroke-opacity:0.2;opacity:0.35"
     id="rect50"
     width="1.9073486e-06"
     height="2.9338093"
     x="11.660993"
     y="-123.16624"
     transform="rotate(90)" />
  <rect
     style="fill:none;fill-opacity:0.1;stroke:#000000;stroke-width:1.25795;stroke-linecap:butt;stroke-dasharray:none;stroke-opacity:0.2;opacity:0.35"
     id="rect51"
     width="1.9073486e-06"
     height="2.9338093"
     x="24.016445"
     y="-123.16624"
     transform="rotate(90)" />
  <rect
     style="fill:none;fill-opacity:0.1;stroke:#000000;stroke-width:1.25795;stroke-linecap:butt;stroke-dasharray:none;stroke-opacity:0.2;opacity:0.35"
     id="rect52"
     width="1.9073486e-06"
     height="2.9338093"
     x="27.105289"
     y="-123.16624"
     transform="rotate(90)" />
  <rect
     style="fill:none;fill-opacity:0.1;stroke:#000000;stroke-width:1.25795;stroke-linecap:butt;stroke-dasharray:none;stroke-opacity:0.2;opacity:0.35"
     id="rect53"
     width="1.9073486e-06"
     height="2.9338093"
     x="20.92757"
     y="-123.16624"
     transform="rotate(90)" />
  <rect
     style="fill:none;fill-opacity:0.1;stroke:#000000;stroke-width:1.25795;stroke-linecap:butt;stroke-dasharray:none;stroke-opacity:0.2;opacity:0.35"
     id="rect54"
     width="1.9073486e-06"
     height="2.9338093"
     x="33.283031"
     y="-123.16624"
     transform="rotate(90)" />
  <rect
     style="fill:none;fill-opacity:0.1;stroke:#000000;stroke-width:1.25795;stroke-linecap:butt;stroke-dasharray:none;stroke-opacity:0.2;opacity:0.35"
     id="rect55"
     width="1.9073486e-06"
     height="2.9338093"
     x="36.371895"
     y="-123.16624"
     transform="rotate(90)" />
  <rect
     style="fill:none;fill-opacity:0.1;stroke:#000000;stroke-width:1.25795;stroke-linecap:butt;stroke-dasharray:none;stroke-opacity:0.2;opacity:0.35"
     id="rect56"
     width="1.9073486e-06"
     height="2.9338093"
     x="30.194149"
     y="-123.16624"
     transform="rotate(90)" />
  <rect
     style="fill:none;fill-opacity:0.1;stroke:#000000;stroke-width:1.25795;stroke-linecap:butt;stroke-dasharray:none;stroke-opacity:0.2;opacity:0.35"
     id="rect57"
     width="1.9073486e-06"
     height="2.9338093"
     x="14.741166"
     y="-81.579781"
     transform="rotate(90)" />
  <rect
     style="fill:none;fill-opacity:0.1;stroke:#000000;stroke-width:1.25795;stroke-linecap:butt;stroke-dasharray:none;stroke-opacity:0.2;opacity:0.35"
     id="rect58"
     width="1.9073486e-06"
     height="2.9338093"
     x="17.830025"
     y="-81.579781"
     transform="rotate(90)" />
  <rect
     style="fill:none;fill-opacity:0.1;stroke:#000000;stroke-width:1.25795;stroke-linecap:butt;stroke-dasharray:none;stroke-opacity:0.2;opacity:0.35"
     id="rect59"
     width="1.9073486e-06"
     height="2.9338093"
     x="11.652308"
     y="-81.579781"
     transform="rotate(90)" />
  <rect
     style="fill:none;fill-opacity:0.1;stroke:#000000;stroke-width:1.25795;stroke-linecap:butt;stroke-dasharray:none;stroke-opacity:0.2;opacity:0.35"
     id="rect60"
     width="1.9073486e-06"
     height="2.9338093"
     x="24.007759"
     y="-81.579781"
     transform="rotate(90)" />
  <rect
     style="fill:none;fill-opacity:0.1;stroke:#000000;stroke-width:1.25795;stroke-linecap:butt;stroke-dasharray:none;stroke-opacity:0.2;opacity:0.35"
     id="rect61"
     width="1.9073486e-06"
     height="2.9338093"
     x="27.096603"
     y="-81.579781"
     transform="rotate(90)" />
  <rect
     style="fill:none;fill-opacity:0.1;stroke:#000000;stroke-width:1.25795;stroke-linecap:butt;stroke-dasharray:none;stroke-opacity:0.2;opacity:0.35"
     id="rect62"
     width="1.9073486e-06"
     height="2.9338093"
     x="20.918884"
     y="-81.579781"
     transform="rotate(90)" />
  <rect
     style="fill:none;fill-opacity:0.1;stroke:#000000;stroke-width:1.25795;stroke-linecap:butt;stroke-dasharray:none;stroke-opacity:0.2;opacity:0.35"
     id="rect63"
     width="1.9073486e-06"
     height="2.9338093"
     x="33.274345"
     y="-81.579781"
     transform="rotate(90)" />
  <rect
     style="fill:none;fill-opacity:0.1;stroke:#000000;stroke-width:1.25795;stroke-linecap:butt;stroke-dasharray:none;stroke-opacity:0.2;opacity:0.35"
     id="rect64"
     width="1.9073486e-06"
     height="2.9338093"
     x="36.363209"
     y="-81.579781"
     transform="rotate(90)" />
  <rect
     style="fill:none;fill-opacity:0.1;stroke:#000000;stroke-width:1.25795;stroke-linecap:butt;stroke-dasharray:none;stroke-opacity:0.2;opacity:0.35"
     id="rect65"
     width="1.9073486e-06"
     height="2.9338093"
     x="30.185463"
     y="-81.579781"
     transform="rotate(90)" />
  <g
     aria-label="NANO"
     transform="matrix(1.039343,0,0,1.039343,-5.8041726,1.5457291)"
     id="text65"
     style="white-space:pre;shape-inside:url(#rect66);fill:#000000;fill-opacity:0.2;stroke-width:1.4;stroke-linejoin:round;stroke-opacity:0.2;opacity:0.35">
    <path
       d="m 85.792969,17.240234 h 1.59375 l 3.878906,7.31836 v -7.31836 h 1.148437 v 8.748047 h -1.59375 l -3.878906,-7.318359 v 7.318359 h -1.148437 z"
       id="path59" />
    <path
       d="m 97.693359,18.40625 -1.605468,4.353516 h 3.216796 z m -0.667968,-1.166016 h 1.341796 l 3.333983,8.748047 h -1.23047 l -0.796872,-2.24414 h -3.943359 l -0.796875,2.24414 h -1.248047 z"
       id="path61" />
    <path
       d="m 102.97852,17.240234 h 1.59375 l 3.8789,7.31836 v -7.31836 h 1.14844 v 8.748047 h -1.59375 l -3.87891,-7.318359 v 7.318359 h -1.14843 z"
       id="path63" />
    <path
       d="m 115.50586,18.042969 q -1.28906,0 -2.05078,0.960937 -0.75586,0.960938 -0.75586,2.619141 0,1.652344 0.75586,2.613281 0.76172,0.960938 2.05078,0.960938 1.28906,0 2.03906,-0.960938 0.75586,-0.960937 0.75586,-2.613281 0,-1.658203 -0.75586,-2.619141 -0.75,-0.960937 -2.03906,-0.960937 z m 0,-0.960938 q 1.83984,0 2.94141,1.236328 1.10156,1.230469 1.10156,3.304688 0,2.068359 -1.10156,3.304687 -1.10157,1.230469 -2.94141,1.230469 -1.8457,0 -2.95313,-1.230469 -1.10156,-1.230468 -1.10156,-3.304687 0,-2.074219 1.10156,-3.304688 1.10743,-1.236328 2.95313,-1.236328 z"
       id="path65" />
  </g>
</svg>
