<?xml version="1.0" encoding="UTF-8" standalone="no"?>
<svg
   width="129"
   height="82"
   viewBox="0 0 129 82"
   fill="none"
   version="1.1"
   id="svg29"
   sodipodi:docname="orig_nano_rp2040.svg"
   inkscape:export-filename="orig_nano_esp32.svg"
   inkscape:export-xdpi="96"
   inkscape:export-ydpi="96"
   inkscape:version="1.1.2 (0a00cf5339, 2022-02-04)"
   xmlns:inkscape="http://www.inkscape.org/namespaces/inkscape"
   xmlns:sodipodi="http://sodipodi.sourceforge.net/DTD/sodipodi-0.dtd"
   xmlns="http://www.w3.org/2000/svg"
   xmlns:svg="http://www.w3.org/2000/svg">
  <defs
     id="defs29">
    <rect
       x="84.616135"
       y="15.370143"
       width="50.92482"
       height="36.671791"
       id="rect66" />
  </defs>
  <sodipodi:namedview
     id="namedview29"
     pagecolor="#ffffff"
     bordercolor="#000000"
     borderopacity="0.25"
     inkscape:showpageshadow="2"
     inkscape:pageopacity="0.0"
     inkscape:pagecheckerboard="0"
     inkscape:deskcolor="#d1d1d1"
     inkscape:pageshadow="2"
     showgrid="false"
     inkscape:zoom="5.0182925"
     inkscape:cx="61.574729"
     inkscape:cy="74.1288"
     inkscape:window-width="1920"
     inkscape:window-height="1008"
     inkscape:window-x="0"
     inkscape:window-y="0"
     inkscape:window-maximized="1"
     inkscape:current-layer="svg29" />
  <g
     id="g29"
     transform="matrix(0.81790719,0,0,0.81790719,0,14.828472)"
     style="opacity:0.35">
    <path
       d="M 80.417774,16.316601 C 80.417774,6.2513008 69.0188,2.34848 57.7211,5.22427 46.4233,8.10006 41.9042,17.753812 41.9042,32.132812"
       stroke="#444458"
       stroke-width="1.5"
       id="path1"
       style="stroke:#000000;stroke-opacity:0.2"
       sodipodi:nodetypes="ccc" />
    <path
       d="M 81.138512,16.316601 C 81.138512,6.2512808 68.403,-1.96519 55.2564,2.55389 42.1099,7.07297 39.404859,17.753812 39.404859,32.132812"
       stroke="#E0E0E0"
       stroke-width="1.5"
       id="path2"
       style="stroke:#000000;stroke-opacity:0.2"
       sodipodi:nodetypes="ccc" />
    <rect
       x="79.495201"
       y="16.316601"
       width="3.2866199"
       height="9.8598804"
       fill="#B9B9B9"
       id="rect2"
       style="fill:#000000;fill-opacity:0.2" />
    <path
       d="M 77.030312,16.3165 C 77.030312,6.2511697 62.2405,-3.1978 49.9156,2.75926 37.5908,8.71631 37.5908,17.753812 37.5908,32.132812"
       stroke="#178ACE"
       stroke-width="1.5"
       id="path3"
       style="stroke:#000000;stroke-opacity:0.2"
       sodipodi:nodetypes="ccc" />
    <rect
       x="75.387001"
       y="16.3165"
       width="3.2866199"
       height="9.8598804"
       fill="#B9B9B9"
       id="rect4"
       style="fill:#000000;fill-opacity:0.2" />
    <path
       id="rect6"
       style="fill:#000000;fill-opacity:0.1"
       d="m 34.304688,32.132812 v 14.791016 l 10.886413,-5.26e-4 v -14.79049 z m 5.544921,2.464844 c 1.134898,-3.03e-4 2.054991,0.91979 2.054688,2.054688 3.02e-4,1.134898 -0.91979,2.05499 -2.054688,2.054687 -1.134135,-7.76e-4 -2.053036,-0.920552 -2.052734,-2.054687 -3.03e-4,-1.134135 0.918599,-2.053912 2.052734,-2.054688 z"
       sodipodi:nodetypes="cccccccccc" />
    <path
       id="rect7"
       style="fill:#000000;fill-opacity:0.3"
       d="M 45.191406,26.175781 V 46.923828 H 88.328125 V 26.175781 Z m 10.578125,2.054688 a 8.3192701,8.3192701 0 0 1 8.320313,8.320312 8.3192701,8.3192701 0 0 1 -8.320313,8.31836 8.3192701,8.3192701 0 0 1 -8.318359,-8.31836 8.3192701,8.3192701 0 0 1 8.318359,-8.320312 z m 22.390625,0 a 8.3192701,8.3192701 0 0 1 8.31836,8.320312 8.3192701,8.3192701 0 0 1 -8.31836,8.31836 8.3192701,8.3192701 0 0 1 -8.320312,-8.31836 8.3192701,8.3192701 0 0 1 8.320312,-8.320312 z" />
    <circle
       cx="55.769798"
       cy="36.5499"
       r="6.26513"
       fill="#444458"
       id="circle9"
       style="fill:none;stroke:#000000;stroke-opacity:0.2" />
    <circle
       cx="78.159798"
       cy="36.5499"
       r="6.26513"
       fill="#444458"
       id="circle13"
       style="fill:none;stroke:#000000;stroke-opacity:0.2" />
    <path
       id="rect15"
       d="m 31.222656,46.923828 v 8.216797 H 73.126953 83.398438 V 46.923828 H 73.126953 Z"
       style="fill:#000000;fill-opacity:0.2" />
    <path
       id="rect17"
       style="fill:#000000;fill-opacity:0.2"
       d="m 8.2167969,46.923828 v 8.216797 H 0 v 3.285156 H 8.2167969 V 69.929688 H 0 v 3.287109 h 8.2167969 v 8.216797 H 19.720703 V 73.216797 H 109.2793 v 8.216797 h 11.5039 V 73.216797 H 129 v -3.287109 h -8.2168 V 58.425781 H 129 v -3.285156 h -8.2168 v -8.216797 h -11.5039 v 8.216797 H 19.720703 V 46.923828 Z M 19.720703,58.425781 H 109.2793 V 69.929688 H 19.720703 Z" />
    <rect
       x="63.043098"
       y="73.216797"
       width="2.96176"
       height="5.6351466"
       fill="#5d5d5d"
       id="rect18"
       style="fill:#000000;fill-opacity:0.2;stroke-width:0.885121" />
    <rect
       x="27.730801"
       y="58.426498"
       width="73.5382"
       height="11.5032"
       fill="#444458"
       id="rect25"
       style="fill:#000000;fill-opacity:0.2" />
  </g>
  <rect
     style="fill:none;fill-opacity:0.1;stroke:#000000;stroke-width:1.4;stroke-linejoin:round;stroke-dasharray:none;stroke-opacity:0.2;opacity:0.35"
     id="rect29"
     width="37.252659"
     height="37.252659"
     x="82.279778"
     y="5.3901172" />
  <rect
     style="fill:none;fill-opacity:0.1;stroke:#000000;stroke-width:1.25795;stroke-linecap:butt;stroke-dasharray:none;stroke-opacity:0.2;opacity:0.35"
     id="rect30"
     width="1.9073486e-06"
     height="2.9338093"
     x="91.639519"
     y="1.8135886" />
  <rect
     style="fill:none;fill-opacity:0.1;stroke:#000000;stroke-width:1.25795;stroke-linecap:butt;stroke-dasharray:none;stroke-opacity:0.2;opacity:0.35"
     id="rect31"
     width="1.9073486e-06"
     height="2.9338093"
     x="94.728378"
     y="1.8135886" />
  <rect
     style="fill:none;fill-opacity:0.1;stroke:#000000;stroke-width:1.25795;stroke-linecap:butt;stroke-dasharray:none;stroke-opacity:0.2;opacity:0.35"
     id="rect32"
     width="1.9073486e-06"
     height="2.9338093"
     x="88.550659"
     y="1.8135886" />
  <rect
     style="fill:none;fill-opacity:0.1;stroke:#000000;stroke-width:1.25795;stroke-linecap:butt;stroke-dasharray:none;stroke-opacity:0.2;opacity:0.35"
     id="rect33"
     width="1.9073486e-06"
     height="2.9338093"
     x="100.90611"
     y="1.8135886" />
  <rect
     style="fill:none;fill-opacity:0.1;stroke:#000000;stroke-width:1.25795;stroke-linecap:butt;stroke-dasharray:none;stroke-opacity:0.2;opacity:0.35"
     id="rect34"
     width="1.9073486e-06"
     height="2.9338093"
     x="103.99496"
     y="1.8135886" />
  <rect
     style="fill:none;fill-opacity:0.1;stroke:#000000;stroke-width:1.25795;stroke-linecap:butt;stroke-dasharray:none;stroke-opacity:0.2;opacity:0.35"
     id="rect35"
     width="1.9073486e-06"
     height="2.9338093"
     x="97.817238"
     y="1.8135886" />
  <rect
     style="fill:none;fill-opacity:0.1;stroke:#000000;stroke-width:1.25795;stroke-linecap:butt;stroke-dasharray:none;stroke-opacity:0.2;opacity:0.35"
     id="rect36"
     width="1.9073486e-06"
     height="2.9338093"
     x="110.17269"
     y="1.8135886" />
  <rect
     style="fill:none;fill-opacity:0.1;stroke:#000000;stroke-width:1.25795;stroke-linecap:butt;stroke-dasharray:none;stroke-opacity:0.2;opacity:0.35"
     id="rect37"
     width="1.9073486e-06"
     height="2.9338093"
     x="113.26155"
     y="1.8135886" />
  <rect
     style="fill:none;fill-opacity:0.1;stroke:#000000;stroke-width:1.25795;stroke-linecap:butt;stroke-dasharray:none;stroke-opacity:0.2;opacity:0.35"
     id="rect38"
     width="1.9073486e-06"
     height="2.9338093"
     x="107.08382"
     y="1.8135886" />
  <rect
     style="fill:none;fill-opacity:0.1;stroke:#000000;stroke-width:1.25795;stroke-linecap:butt;stroke-dasharray:none;stroke-opacity:0.2;opacity:0.35"
     id="rect39"
     width="1.9073486e-06"
     height="2.9338093"
     x="91.639511"
     y="43.342777" />
  <rect
     style="fill:none;fill-opacity:0.1;stroke:#000000;stroke-width:1.25795;stroke-linecap:butt;stroke-dasharray:none;stroke-opacity:0.2;opacity:0.35"
     id="rect40"
     width="1.9073486e-06"
     height="2.9338093"
     x="94.728371"
     y="43.342777" />
  <rect
     style="fill:none;fill-opacity:0.1;stroke:#000000;stroke-width:1.25795;stroke-linecap:butt;stroke-dasharray:none;stroke-opacity:0.2;opacity:0.35"
     id="rect41"
     width="1.9073486e-06"
     height="2.9338093"
     x="88.550652"
     y="43.342777" />
  <rect
     style="fill:none;fill-opacity:0.1;stroke:#000000;stroke-width:1.25795;stroke-linecap:butt;stroke-dasharray:none;stroke-opacity:0.2;opacity:0.35"
     id="rect42"
     width="1.9073486e-06"
     height="2.9338093"
     x="100.90611"
     y="43.342777" />
  <rect
     style="fill:none;fill-opacity:0.1;stroke:#000000;stroke-width:1.25795;stroke-linecap:butt;stroke-dasharray:none;stroke-opacity:0.2;opacity:0.35"
     id="rect43"
     width="1.9073486e-06"
     height="2.9338093"
     x="103.99495"
     y="43.342777" />
  <rect
     style="fill:none;fill-opacity:0.1;stroke:#000000;stroke-width:1.25795;stroke-linecap:butt;stroke-dasharray:none;stroke-opacity:0.2;opacity:0.35"
     id="rect44"
     width="1.9073486e-06"
     height="2.9338093"
     x="97.81723"
     y="43.342777" />
  <rect
     style="fill:none;fill-opacity:0.1;stroke:#000000;stroke-width:1.25795;stroke-linecap:butt;stroke-dasharray:none;stroke-opacity:0.2;opacity:0.35"
     id="rect45"
     width="1.9073486e-06"
     height="2.9338093"
     x="110.17268"
     y="43.342777" />
  <rect
     style="fill:none;fill-opacity:0.1;stroke:#000000;stroke-width:1.25795;stroke-linecap:butt;stroke-dasharray:none;stroke-opacity:0.2;opacity:0.35"
     id="rect46"
     width="1.9073486e-06"
     height="2.9338093"
     x="113.26154"
     y="43.342777" />
  <rect
     style="fill:none;fill-opacity:0.1;stroke:#000000;stroke-width:1.25795;stroke-linecap:butt;stroke-dasharray:none;stroke-opacity:0.2;opacity:0.35"
     id="rect47"
     width="1.9073486e-06"
     height="2.9338093"
     x="107.08381"
     y="43.342777" />
  <rect
     style="fill:none;fill-opacity:0.1;stroke:#000000;stroke-width:1.25795;stroke-linecap:butt;stroke-dasharray:none;stroke-opacity:0.2;opacity:0.35"
     id="rect48"
     width="1.9073486e-06"
     height="2.9338093"
     x="14.749851"
     y="-123.16624"
     transform="rotate(90)" />
  <rect
     style="fill:none;fill-opacity:0.1;stroke:#000000;stroke-width:1.25795;stroke-linecap:butt;stroke-dasharray:none;stroke-opacity:0.2;opacity:0.35"
     id="rect49"
     width="1.9073486e-06"
     height="2.9338093"
     x="17.838711"
     y="-123.16624"
     transform="rotate(90)" />
  <rect
     style="fill:none;fill-opacity:0.1;stroke:#000000;stroke-width:1.25795;stroke-linecap:butt;stroke-dasharray:none;stroke-opacity:0.2;opacity:0.35"
     id="rect50"
     width="1.9073486e-06"
     height="2.9338093"
     x="11.660993"
     y="-123.16624"
     transform="rotate(90)" />
  <rect
     style="fill:none;fill-opacity:0.1;stroke:#000000;stroke-width:1.25795;stroke-linecap:butt;stroke-dasharray:none;stroke-opacity:0.2;opacity:0.35"
     id="rect51"
     width="1.9073486e-06"
     height="2.9338093"
     x="24.016445"
     y="-123.16624"
     transform="rotate(90)" />
  <rect
     style="fill:none;fill-opacity:0.1;stroke:#000000;stroke-width:1.25795;stroke-linecap:butt;stroke-dasharray:none;stroke-opacity:0.2;opacity:0.35"
     id="rect52"
     width="1.9073486e-06"
     height="2.9338093"
     x="27.105289"
     y="-123.16624"
     transform="rotate(90)" />
  <rect
     style="fill:none;fill-opacity:0.1;stroke:#000000;stroke-width:1.25795;stroke-linecap:butt;stroke-dasharray:none;stroke-opacity:0.2;opacity:0.35"
     id="rect53"
     width="1.9073486e-06"
     height="2.9338093"
     x="20.92757"
     y="-123.16624"
     transform="rotate(90)" />
  <rect
     style="fill:none;fill-opacity:0.1;stroke:#000000;stroke-width:1.25795;stroke-linecap:butt;stroke-dasharray:none;stroke-opacity:0.2;opacity:0.35"
     id="rect54"
     width="1.9073486e-06"
     height="2.9338093"
     x="33.283031"
     y="-123.16624"
     transform="rotate(90)" />
  <rect
     style="fill:none;fill-opacity:0.1;stroke:#000000;stroke-width:1.25795;stroke-linecap:butt;stroke-dasharray:none;stroke-opacity:0.2;opacity:0.35"
     id="rect55"
     width="1.9073486e-06"
     height="2.9338093"
     x="36.371895"
     y="-123.16624"
     transform="rotate(90)" />
  <rect
     style="fill:none;fill-opacity:0.1;stroke:#000000;stroke-width:1.25795;stroke-linecap:butt;stroke-dasharray:none;stroke-opacity:0.2;opacity:0.35"
     id="rect56"
     width="1.9073486e-06"
     height="2.9338093"
     x="30.194149"
     y="-123.16624"
     transform="rotate(90)" />
  <rect
     style="fill:none;fill-opacity:0.1;stroke:#000000;stroke-width:1.25795;stroke-linecap:butt;stroke-dasharray:none;stroke-opacity:0.2;opacity:0.35"
     id="rect57"
     width="1.9073486e-06"
     height="2.9338093"
     x="14.741166"
     y="-81.579781"
     transform="rotate(90)" />
  <rect
     style="fill:none;fill-opacity:0.1;stroke:#000000;stroke-width:1.25795;stroke-linecap:butt;stroke-dasharray:none;stroke-opacity:0.2;opacity:0.35"
     id="rect58"
     width="1.9073486e-06"
     height="2.9338093"
     x="17.830025"
     y="-81.579781"
     transform="rotate(90)" />
  <rect
     style="fill:none;fill-opacity:0.1;stroke:#000000;stroke-width:1.25795;stroke-linecap:butt;stroke-dasharray:none;stroke-opacity:0.2;opacity:0.35"
     id="rect59"
     width="1.9073486e-06"
     height="2.9338093"
     x="11.652308"
     y="-81.579781"
     transform="rotate(90)" />
  <rect
     style="fill:none;fill-opacity:0.1;stroke:#000000;stroke-width:1.25795;stroke-linecap:butt;stroke-dasharray:none;stroke-opacity:0.2;opacity:0.35"
     id="rect60"
     width="1.9073486e-06"
     height="2.9338093"
     x="24.007759"
     y="-81.579781"
     transform="rotate(90)" />
  <rect
     style="fill:none;fill-opacity:0.1;stroke:#000000;stroke-width:1.25795;stroke-linecap:butt;stroke-dasharray:none;stroke-opacity:0.2;opacity:0.35"
     id="rect61"
     width="1.9073486e-06"
     height="2.9338093"
     x="27.096603"
     y="-81.579781"
     transform="rotate(90)" />
  <rect
     style="fill:none;fill-opacity:0.1;stroke:#000000;stroke-width:1.25795;stroke-linecap:butt;stroke-dasharray:none;stroke-opacity:0.2;opacity:0.35"
     id="rect62"
     width="1.9073486e-06"
     height="2.9338093"
     x="20.918884"
     y="-81.579781"
     transform="rotate(90)" />
  <rect
     style="fill:none;fill-opacity:0.1;stroke:#000000;stroke-width:1.25795;stroke-linecap:butt;stroke-dasharray:none;stroke-opacity:0.2;opacity:0.35"
     id="rect63"
     width="1.9073486e-06"
     height="2.9338093"
     x="33.274345"
     y="-81.579781"
     transform="rotate(90)" />
  <rect
     style="fill:none;fill-opacity:0.1;stroke:#000000;stroke-width:1.25795;stroke-linecap:butt;stroke-dasharray:none;stroke-opacity:0.2;opacity:0.35"
     id="rect64"
     width="1.9073486e-06"
     height="2.9338093"
     x="36.363209"
     y="-81.579781"
     transform="rotate(90)" />
  <rect
     style="fill:none;fill-opacity:0.1;stroke:#000000;stroke-width:1.25795;stroke-linecap:butt;stroke-dasharray:none;stroke-opacity:0.2;opacity:0.35"
     id="rect65"
     width="1.9073486e-06"
     height="2.9338093"
     x="30.185463"
     y="-81.579781"
     transform="rotate(90)" />
  <g
     aria-label="NANO RP2040"
     transform="matrix(0.76592694,0,0,0.76592694,16.448447,1.7412053)"
     id="text65"
     style="text-align:center;white-space:pre;shape-inside:url(#rect66);fill:#000000;fill-opacity:0.2;stroke-width:1.4;stroke-linejoin:round;stroke-opacity:0.2;opacity:0.35">
    <path
       d="m 93.452148,17.240234 h 1.59375 l 3.878907,7.31836 v -7.31836 h 1.148435 v 8.748047 h -1.593748 l -3.878906,-7.318359 v 7.318359 h -1.148438 z"
       id="path60" />
    <path
       d="m 105.35254,18.40625 -1.60547,4.353516 h 3.2168 z m -0.66797,-1.166016 h 1.3418 l 3.33398,8.748047 h -1.23047 l -0.79687,-2.24414 h -3.94336 l -0.79688,2.24414 h -1.24804 z"
       id="path62" />
    <path
       d="m 110.6377,17.240234 h 1.59375 l 3.8789,7.31836 v -7.31836 h 1.14844 v 8.748047 h -1.59375 l -3.87891,-7.318359 v 7.318359 h -1.14843 z"
       id="path64" />
    <path
       d="m 123.16504,18.042969 q -1.28906,0 -2.05078,0.960937 -0.75586,0.960938 -0.75586,2.619141 0,1.652344 0.75586,2.613281 0.76172,0.960938 2.05078,0.960938 1.28906,0 2.03906,-0.960938 0.75586,-0.960937 0.75586,-2.613281 0,-1.658203 -0.75586,-2.619141 -0.75,-0.960937 -2.03906,-0.960937 z m 0,-0.960938 q 1.83984,0 2.94141,1.236328 1.10156,1.230469 1.10156,3.304688 0,2.068359 -1.10156,3.304687 -1.10157,1.230469 -2.94141,1.230469 -1.8457,0 -2.95313,-1.230469 -1.10156,-1.230468 -1.10156,-3.304687 0,-2.074219 1.10156,-3.304688 1.10743,-1.236328 2.95313,-1.236328 z"
       id="path66" />
    <path
       d="m 92.347656,36.886719 q 0.38086,0.128906 0.738281,0.550781 0.363282,0.421875 0.726563,1.160156 l 1.201172,2.390625 h -1.271485 l -1.11914,-2.24414 Q 92.189453,37.865234 91.779297,37.578125 91.375,37.291016 90.671875,37.291016 h -1.289063 v 3.697265 h -1.183593 v -8.748047 h 2.671875 q 1.5,0 2.238281,0.626953 0.738281,0.626954 0.738281,1.892579 0,0.826171 -0.386719,1.371093 -0.380859,0.544922 -1.113281,0.75586 z m -2.964844,-3.673828 v 3.105468 h 1.488282 q 0.855468,0 1.289062,-0.392578 0.439453,-0.398437 0.439453,-1.166015 0,-0.767579 -0.439453,-1.154297 -0.433594,-0.392578 -1.289062,-0.392578 z"
       id="path68" />
    <path
       d="M 97.720703,33.212891 V 36.5 h 1.488281 q 0.826176,0 1.277346,-0.427734 0.45117,-0.427735 0.45117,-1.21875 0,-0.785157 -0.45117,-1.212891 -0.45117,-0.427734 -1.277346,-0.427734 z m -1.183594,-0.972657 h 2.671875 q 1.470706,0 2.220706,0.667969 0.75586,0.662109 0.75586,1.945313 0,1.294921 -0.75586,1.957031 -0.75,0.662109 -2.220706,0.662109 h -1.488281 v 3.515625 h -1.183594 z"
       id="path70" />
    <path
       d="m 104.89844,39.992187 h 4.13086 v 0.996094 h -5.55469 v -0.996094 q 0.67383,-0.697265 1.83398,-1.86914 1.16602,-1.177735 1.46485,-1.517578 0.56836,-0.638672 0.79101,-1.078125 0.22852,-0.445313 0.22852,-0.873047 0,-0.697266 -0.49219,-1.136719 -0.48633,-0.439453 -1.27148,-0.439453 -0.55664,0 -1.17774,0.193359 -0.61523,0.19336 -1.31836,0.585938 v -1.195313 q 0.71485,-0.287109 1.33594,-0.433593 0.62109,-0.146485 1.13672,-0.146485 1.35937,0 2.16797,0.679688 0.80859,0.679687 0.80859,1.816406 0,0.539062 -0.20508,1.025391 -0.19921,0.480468 -0.73242,1.136718 -0.14648,0.169922 -0.93164,0.984375 -0.78515,0.808594 -2.21484,2.267578 z"
       id="path72" />
    <path
       d="m 114.04492,33.019531 q -0.91406,0 -1.37695,0.902344 -0.45703,0.896484 -0.45703,2.701172 0,1.798828 0.45703,2.701172 0.46289,0.896484 1.37695,0.896484 0.91992,0 1.37696,-0.896484 0.46289,-0.902344 0.46289,-2.701172 0,-1.804688 -0.46289,-2.701172 -0.45704,-0.902344 -1.37696,-0.902344 z m 0,-0.9375 q 1.47071,0 2.24414,1.166016 0.7793,1.160156 0.7793,3.375 0,2.208984 -0.7793,3.375 -0.77343,1.160156 -2.24414,1.160156 -1.4707,0 -2.25,-1.160156 -0.77344,-1.166016 -0.77344,-3.375 0,-2.214844 0.77344,-3.375 0.7793,-1.166016 2.25,-1.166016 z"
       id="path74" />
    <path
       d="m 122.40039,33.271484 -2.98828,4.669922 h 2.98828 z m -0.31055,-1.03125 h 1.48829 v 5.701172 h 1.24804 v 0.984375 h -1.24804 v 2.0625 h -1.17774 v -2.0625 h -3.94922 v -1.142578 z"
       id="path76" />
    <path
       d="m 129.31445,33.019531 q -0.91406,0 -1.37695,0.902344 -0.45703,0.896484 -0.45703,2.701172 0,1.798828 0.45703,2.701172 0.46289,0.896484 1.37695,0.896484 0.91992,0 1.37696,-0.896484 0.46289,-0.902344 0.46289,-2.701172 0,-1.804688 -0.46289,-2.701172 -0.45704,-0.902344 -1.37696,-0.902344 z m 0,-0.9375 q 1.47071,0 2.24414,1.166016 0.7793,1.160156 0.7793,3.375 0,2.208984 -0.7793,3.375 -0.77343,1.160156 -2.24414,1.160156 -1.4707,0 -2.25,-1.160156 -0.77343,-1.166016 -0.77343,-3.375 0,-2.214844 0.77343,-3.375 0.7793,-1.166016 2.25,-1.166016 z"
       id="path78" />
  </g>
</svg>
