<?xml version="1.0" encoding="UTF-8" standalone="no"?>
<svg
   width="129"
   height="82"
   viewBox="0 0 129 82"
   fill="none"
   version="1.1"
   id="svg29"
   sodipodi:docname="orig_nano_esp32.svg"
   inkscape:export-filename="orig_nano_esp32.svg"
   inkscape:export-xdpi="96"
   inkscape:export-ydpi="96"
   inkscape:version="1.1.2 (0a00cf5339, 2022-02-04)"
   xmlns:inkscape="http://www.inkscape.org/namespaces/inkscape"
   xmlns:sodipodi="http://sodipodi.sourceforge.net/DTD/sodipodi-0.dtd"
   xmlns="http://www.w3.org/2000/svg"
   xmlns:svg="http://www.w3.org/2000/svg">
  <defs
     id="defs29">
    <rect
       x="84.616135"
       y="15.370143"
       width="45.085201"
       height="32.786049"
       id="rect66" />
  </defs>
  <sodipodi:namedview
     id="namedview29"
     pagecolor="#ffffff"
     bordercolor="#000000"
     borderopacity="0.25"
     inkscape:showpageshadow="2"
     inkscape:pageopacity="0.0"
     inkscape:pagecheckerboard="0"
     inkscape:deskcolor="#d1d1d1"
     inkscape:pageshadow="2"
     showgrid="false"
     inkscape:zoom="5.0182925"
     inkscape:cx="48.622116"
     inkscape:cy="69.744838"
     inkscape:window-width="1920"
     inkscape:window-height="1008"
     inkscape:window-x="0"
     inkscape:window-y="0"
     inkscape:window-maximized="1"
     inkscape:current-layer="svg29" />
  <g
     id="g29"
     transform="matrix(0.81790719,0,0,0.81790719,0,14.828472)"
     style="opacity:0.35">
    <path
       d="M 80.417774,16.316601 C 80.417774,6.2513008 69.0188,2.34848 57.7211,5.22427 46.4233,8.10006 41.9042,17.753812 41.9042,32.132812"
       stroke="#444458"
       stroke-width="1.5"
       id="path1"
       style="stroke:#000000;stroke-opacity:0.2"
       sodipodi:nodetypes="ccc" />
    <path
       d="M 81.138512,16.316601 C 81.138512,6.2512808 68.403,-1.96519 55.2564,2.55389 42.1099,7.07297 39.404859,17.753812 39.404859,32.132812"
       stroke="#E0E0E0"
       stroke-width="1.5"
       id="path2"
       style="stroke:#000000;stroke-opacity:0.2"
       sodipodi:nodetypes="ccc" />
    <rect
       x="79.495201"
       y="16.316601"
       width="3.2866199"
       height="9.8598804"
       fill="#B9B9B9"
       id="rect2"
       style="fill:#000000;fill-opacity:0.2" />
    <path
       d="M 77.030312,16.3165 C 77.030312,6.2511697 62.2405,-3.1978 49.9156,2.75926 37.5908,8.71631 37.5908,17.753812 37.5908,32.132812"
       stroke="#178ACE"
       stroke-width="1.5"
       id="path3"
       style="stroke:#000000;stroke-opacity:0.2"
       sodipodi:nodetypes="ccc" />
    <rect
       x="75.387001"
       y="16.3165"
       width="3.2866199"
       height="9.8598804"
       fill="#B9B9B9"
       id="rect4"
       style="fill:#000000;fill-opacity:0.2" />
    <path
       id="rect6"
       style="fill:#000000;fill-opacity:0.1"
       d="m 34.304688,32.132812 v 14.791016 l 10.886413,-5.26e-4 v -14.79049 z m 5.544921,2.464844 c 1.134898,-3.03e-4 2.054991,0.91979 2.054688,2.054688 3.02e-4,1.134898 -0.91979,2.05499 -2.054688,2.054687 -1.134135,-7.76e-4 -2.053036,-0.920552 -2.052734,-2.054687 -3.03e-4,-1.134135 0.918599,-2.053912 2.052734,-2.054688 z"
       sodipodi:nodetypes="cccccccccc" />
    <path
       id="rect7"
       style="fill:#000000;fill-opacity:0.3"
       d="M 45.191406,26.175781 V 46.923828 H 88.328125 V 26.175781 Z m 10.578125,2.054688 a 8.3192701,8.3192701 0 0 1 8.320313,8.320312 8.3192701,8.3192701 0 0 1 -8.320313,8.31836 8.3192701,8.3192701 0 0 1 -8.318359,-8.31836 8.3192701,8.3192701 0 0 1 8.318359,-8.320312 z m 22.390625,0 a 8.3192701,8.3192701 0 0 1 8.31836,8.320312 8.3192701,8.3192701 0 0 1 -8.31836,8.31836 8.3192701,8.3192701 0 0 1 -8.320312,-8.31836 8.3192701,8.3192701 0 0 1 8.320312,-8.320312 z" />
    <circle
       cx="55.769798"
       cy="36.5499"
       r="6.26513"
       fill="#444458"
       id="circle9"
       style="fill:none;stroke:#000000;stroke-opacity:0.2" />
    <circle
       cx="78.159798"
       cy="36.5499"
       r="6.26513"
       fill="#444458"
       id="circle13"
       style="fill:none;stroke:#000000;stroke-opacity:0.2" />
    <path
       id="rect15"
       d="m 31.222656,46.923828 v 8.216797 H 73.126953 83.398438 V 46.923828 H 73.126953 Z"
       style="fill:#000000;fill-opacity:0.2" />
    <path
       id="rect17"
       style="fill:#000000;fill-opacity:0.2"
       d="m 8.2167969,46.923828 v 8.216797 H 0 v 3.285156 H 8.2167969 V 69.929688 H 0 v 3.287109 h 8.2167969 v 8.216797 H 19.720703 V 73.216797 H 109.2793 v 8.216797 h 11.5039 V 73.216797 H 129 v -3.287109 h -8.2168 V 58.425781 H 129 v -3.285156 h -8.2168 v -8.216797 h -11.5039 v 8.216797 H 19.720703 V 46.923828 Z M 19.720703,58.425781 H 109.2793 V 69.929688 H 19.720703 Z" />
    <rect
       x="63.043098"
       y="73.216797"
       width="2.96176"
       height="5.6351466"
       fill="#5d5d5d"
       id="rect18"
       style="fill:#000000;fill-opacity:0.2;stroke-width:0.885121" />
    <rect
       x="27.730801"
       y="58.426498"
       width="73.5382"
       height="11.5032"
       fill="#444458"
       id="rect25"
       style="fill:#000000;fill-opacity:0.2" />
  </g>
  <rect
     style="fill:none;fill-opacity:0.1;stroke:#000000;stroke-width:1.4;stroke-linejoin:round;stroke-dasharray:none;stroke-opacity:0.2;opacity:0.35"
     id="rect29"
     width="37.252659"
     height="37.252659"
     x="82.279778"
     y="5.3901172" />
  <rect
     style="fill:none;fill-opacity:0.1;stroke:#000000;stroke-width:1.25795;stroke-linecap:butt;stroke-dasharray:none;stroke-opacity:0.2;opacity:0.35"
     id="rect30"
     width="1.9073486e-06"
     height="2.9338093"
     x="91.639519"
     y="1.8135886" />
  <rect
     style="fill:none;fill-opacity:0.1;stroke:#000000;stroke-width:1.25795;stroke-linecap:butt;stroke-dasharray:none;stroke-opacity:0.2;opacity:0.35"
     id="rect31"
     width="1.9073486e-06"
     height="2.9338093"
     x="94.728378"
     y="1.8135886" />
  <rect
     style="fill:none;fill-opacity:0.1;stroke:#000000;stroke-width:1.25795;stroke-linecap:butt;stroke-dasharray:none;stroke-opacity:0.2;opacity:0.35"
     id="rect32"
     width="1.9073486e-06"
     height="2.9338093"
     x="88.550659"
     y="1.8135886" />
  <rect
     style="fill:none;fill-opacity:0.1;stroke:#000000;stroke-width:1.25795;stroke-linecap:butt;stroke-dasharray:none;stroke-opacity:0.2;opacity:0.35"
     id="rect33"
     width="1.9073486e-06"
     height="2.9338093"
     x="100.90611"
     y="1.8135886" />
  <rect
     style="fill:none;fill-opacity:0.1;stroke:#000000;stroke-width:1.25795;stroke-linecap:butt;stroke-dasharray:none;stroke-opacity:0.2;opacity:0.35"
     id="rect34"
     width="1.9073486e-06"
     height="2.9338093"
     x="103.99496"
     y="1.8135886" />
  <rect
     style="fill:none;fill-opacity:0.1;stroke:#000000;stroke-width:1.25795;stroke-linecap:butt;stroke-dasharray:none;stroke-opacity:0.2;opacity:0.35"
     id="rect35"
     width="1.9073486e-06"
     height="2.9338093"
     x="97.817238"
     y="1.8135886" />
  <rect
     style="fill:none;fill-opacity:0.1;stroke:#000000;stroke-width:1.25795;stroke-linecap:butt;stroke-dasharray:none;stroke-opacity:0.2;opacity:0.35"
     id="rect36"
     width="1.9073486e-06"
     height="2.9338093"
     x="110.17269"
     y="1.8135886" />
  <rect
     style="fill:none;fill-opacity:0.1;stroke:#000000;stroke-width:1.25795;stroke-linecap:butt;stroke-dasharray:none;stroke-opacity:0.2;opacity:0.35"
     id="rect37"
     width="1.9073486e-06"
     height="2.9338093"
     x="113.26155"
     y="1.8135886" />
  <rect
     style="fill:none;fill-opacity:0.1;stroke:#000000;stroke-width:1.25795;stroke-linecap:butt;stroke-dasharray:none;stroke-opacity:0.2;opacity:0.35"
     id="rect38"
     width="1.9073486e-06"
     height="2.9338093"
     x="107.08382"
     y="1.8135886" />
  <rect
     style="fill:none;fill-opacity:0.1;stroke:#000000;stroke-width:1.25795;stroke-linecap:butt;stroke-dasharray:none;stroke-opacity:0.2;opacity:0.35"
     id="rect39"
     width="1.9073486e-06"
     height="2.9338093"
     x="91.639511"
     y="43.342777" />
  <rect
     style="fill:none;fill-opacity:0.1;stroke:#000000;stroke-width:1.25795;stroke-linecap:butt;stroke-dasharray:none;stroke-opacity:0.2;opacity:0.35"
     id="rect40"
     width="1.9073486e-06"
     height="2.9338093"
     x="94.728371"
     y="43.342777" />
  <rect
     style="fill:none;fill-opacity:0.1;stroke:#000000;stroke-width:1.25795;stroke-linecap:butt;stroke-dasharray:none;stroke-opacity:0.2;opacity:0.35"
     id="rect41"
     width="1.9073486e-06"
     height="2.9338093"
     x="88.550652"
     y="43.342777" />
  <rect
     style="fill:none;fill-opacity:0.1;stroke:#000000;stroke-width:1.25795;stroke-linecap:butt;stroke-dasharray:none;stroke-opacity:0.2;opacity:0.35"
     id="rect42"
     width="1.9073486e-06"
     height="2.9338093"
     x="100.90611"
     y="43.342777" />
  <rect
     style="fill:none;fill-opacity:0.1;stroke:#000000;stroke-width:1.25795;stroke-linecap:butt;stroke-dasharray:none;stroke-opacity:0.2;opacity:0.35"
     id="rect43"
     width="1.9073486e-06"
     height="2.9338093"
     x="103.99495"
     y="43.342777" />
  <rect
     style="fill:none;fill-opacity:0.1;stroke:#000000;stroke-width:1.25795;stroke-linecap:butt;stroke-dasharray:none;stroke-opacity:0.2;opacity:0.35"
     id="rect44"
     width="1.9073486e-06"
     height="2.9338093"
     x="97.81723"
     y="43.342777" />
  <rect
     style="fill:none;fill-opacity:0.1;stroke:#000000;stroke-width:1.25795;stroke-linecap:butt;stroke-dasharray:none;stroke-opacity:0.2;opacity:0.35"
     id="rect45"
     width="1.9073486e-06"
     height="2.9338093"
     x="110.17268"
     y="43.342777" />
  <rect
     style="fill:none;fill-opacity:0.1;stroke:#000000;stroke-width:1.25795;stroke-linecap:butt;stroke-dasharray:none;stroke-opacity:0.2;opacity:0.35"
     id="rect46"
     width="1.9073486e-06"
     height="2.9338093"
     x="113.26154"
     y="43.342777" />
  <rect
     style="fill:none;fill-opacity:0.1;stroke:#000000;stroke-width:1.25795;stroke-linecap:butt;stroke-dasharray:none;stroke-opacity:0.2;opacity:0.35"
     id="rect47"
     width="1.9073486e-06"
     height="2.9338093"
     x="107.08381"
     y="43.342777" />
  <rect
     style="fill:none;fill-opacity:0.1;stroke:#000000;stroke-width:1.25795;stroke-linecap:butt;stroke-dasharray:none;stroke-opacity:0.2;opacity:0.35"
     id="rect48"
     width="1.9073486e-06"
     height="2.9338093"
     x="14.749851"
     y="-123.16624"
     transform="rotate(90)" />
  <rect
     style="fill:none;fill-opacity:0.1;stroke:#000000;stroke-width:1.25795;stroke-linecap:butt;stroke-dasharray:none;stroke-opacity:0.2;opacity:0.35"
     id="rect49"
     width="1.9073486e-06"
     height="2.9338093"
     x="17.838711"
     y="-123.16624"
     transform="rotate(90)" />
  <rect
     style="fill:none;fill-opacity:0.1;stroke:#000000;stroke-width:1.25795;stroke-linecap:butt;stroke-dasharray:none;stroke-opacity:0.2;opacity:0.35"
     id="rect50"
     width="1.9073486e-06"
     height="2.9338093"
     x="11.660993"
     y="-123.16624"
     transform="rotate(90)" />
  <rect
     style="fill:none;fill-opacity:0.1;stroke:#000000;stroke-width:1.25795;stroke-linecap:butt;stroke-dasharray:none;stroke-opacity:0.2;opacity:0.35"
     id="rect51"
     width="1.9073486e-06"
     height="2.9338093"
     x="24.016445"
     y="-123.16624"
     transform="rotate(90)" />
  <rect
     style="fill:none;fill-opacity:0.1;stroke:#000000;stroke-width:1.25795;stroke-linecap:butt;stroke-dasharray:none;stroke-opacity:0.2;opacity:0.35"
     id="rect52"
     width="1.9073486e-06"
     height="2.9338093"
     x="27.105289"
     y="-123.16624"
     transform="rotate(90)" />
  <rect
     style="fill:none;fill-opacity:0.1;stroke:#000000;stroke-width:1.25795;stroke-linecap:butt;stroke-dasharray:none;stroke-opacity:0.2;opacity:0.35"
     id="rect53"
     width="1.9073486e-06"
     height="2.9338093"
     x="20.92757"
     y="-123.16624"
     transform="rotate(90)" />
  <rect
     style="fill:none;fill-opacity:0.1;stroke:#000000;stroke-width:1.25795;stroke-linecap:butt;stroke-dasharray:none;stroke-opacity:0.2;opacity:0.35"
     id="rect54"
     width="1.9073486e-06"
     height="2.9338093"
     x="33.283031"
     y="-123.16624"
     transform="rotate(90)" />
  <rect
     style="fill:none;fill-opacity:0.1;stroke:#000000;stroke-width:1.25795;stroke-linecap:butt;stroke-dasharray:none;stroke-opacity:0.2;opacity:0.35"
     id="rect55"
     width="1.9073486e-06"
     height="2.9338093"
     x="36.371895"
     y="-123.16624"
     transform="rotate(90)" />
  <rect
     style="fill:none;fill-opacity:0.1;stroke:#000000;stroke-width:1.25795;stroke-linecap:butt;stroke-dasharray:none;stroke-opacity:0.2;opacity:0.35"
     id="rect56"
     width="1.9073486e-06"
     height="2.9338093"
     x="30.194149"
     y="-123.16624"
     transform="rotate(90)" />
  <rect
     style="fill:none;fill-opacity:0.1;stroke:#000000;stroke-width:1.25795;stroke-linecap:butt;stroke-dasharray:none;stroke-opacity:0.2;opacity:0.35"
     id="rect57"
     width="1.9073486e-06"
     height="2.9338093"
     x="14.741166"
     y="-81.579781"
     transform="rotate(90)" />
  <rect
     style="fill:none;fill-opacity:0.1;stroke:#000000;stroke-width:1.25795;stroke-linecap:butt;stroke-dasharray:none;stroke-opacity:0.2;opacity:0.35"
     id="rect58"
     width="1.9073486e-06"
     height="2.9338093"
     x="17.830025"
     y="-81.579781"
     transform="rotate(90)" />
  <rect
     style="fill:none;fill-opacity:0.1;stroke:#000000;stroke-width:1.25795;stroke-linecap:butt;stroke-dasharray:none;stroke-opacity:0.2;opacity:0.35"
     id="rect59"
     width="1.9073486e-06"
     height="2.9338093"
     x="11.652308"
     y="-81.579781"
     transform="rotate(90)" />
  <rect
     style="fill:none;fill-opacity:0.1;stroke:#000000;stroke-width:1.25795;stroke-linecap:butt;stroke-dasharray:none;stroke-opacity:0.2;opacity:0.35"
     id="rect60"
     width="1.9073486e-06"
     height="2.9338093"
     x="24.007759"
     y="-81.579781"
     transform="rotate(90)" />
  <rect
     style="fill:none;fill-opacity:0.1;stroke:#000000;stroke-width:1.25795;stroke-linecap:butt;stroke-dasharray:none;stroke-opacity:0.2;opacity:0.35"
     id="rect61"
     width="1.9073486e-06"
     height="2.9338093"
     x="27.096603"
     y="-81.579781"
     transform="rotate(90)" />
  <rect
     style="fill:none;fill-opacity:0.1;stroke:#000000;stroke-width:1.25795;stroke-linecap:butt;stroke-dasharray:none;stroke-opacity:0.2;opacity:0.35"
     id="rect62"
     width="1.9073486e-06"
     height="2.9338093"
     x="20.918884"
     y="-81.579781"
     transform="rotate(90)" />
  <rect
     style="fill:none;fill-opacity:0.1;stroke:#000000;stroke-width:1.25795;stroke-linecap:butt;stroke-dasharray:none;stroke-opacity:0.2;opacity:0.35"
     id="rect63"
     width="1.9073486e-06"
     height="2.9338093"
     x="33.274345"
     y="-81.579781"
     transform="rotate(90)" />
  <rect
     style="fill:none;fill-opacity:0.1;stroke:#000000;stroke-width:1.25795;stroke-linecap:butt;stroke-dasharray:none;stroke-opacity:0.2;opacity:0.35"
     id="rect64"
     width="1.9073486e-06"
     height="2.9338093"
     x="36.363209"
     y="-81.579781"
     transform="rotate(90)" />
  <rect
     style="fill:none;fill-opacity:0.1;stroke:#000000;stroke-width:1.25795;stroke-linecap:butt;stroke-dasharray:none;stroke-opacity:0.2;opacity:0.35"
     id="rect65"
     width="1.9073486e-06"
     height="2.9338093"
     x="30.185463"
     y="-81.579781"
     transform="rotate(90)" />
  <g
     aria-label="NANO ESP32"
     transform="matrix(0.90588784,0,0,0.90588784,7.1865222,-2.3344725)"
     id="text65"
     style="white-space:pre;shape-inside:url(#rect66);fill:#000000;fill-opacity:0.2;stroke-width:1.4;stroke-linejoin:round;stroke-opacity:0.2;opacity:0.35">
    <path
       d="m 85.792969,17.240234 h 1.59375 l 3.878906,7.31836 v -7.31836 h 1.148437 v 8.748047 h -1.59375 l -3.878906,-7.318359 v 7.318359 h -1.148437 z"
       id="path60" />
    <path
       d="m 97.693359,18.40625 -1.605468,4.353516 h 3.216796 z m -0.667968,-1.166016 h 1.341796 l 3.333983,8.748047 h -1.23047 l -0.796872,-2.24414 h -3.943359 l -0.796875,2.24414 h -1.248047 z"
       id="path62" />
    <path
       d="m 102.97852,17.240234 h 1.59375 l 3.8789,7.31836 v -7.31836 h 1.14844 v 8.748047 h -1.59375 l -3.87891,-7.318359 v 7.318359 h -1.14843 z"
       id="path64" />
    <path
       d="m 115.50586,18.042969 q -1.28906,0 -2.05078,0.960937 -0.75586,0.960938 -0.75586,2.619141 0,1.652344 0.75586,2.613281 0.76172,0.960938 2.05078,0.960938 1.28906,0 2.03906,-0.960938 0.75586,-0.960937 0.75586,-2.613281 0,-1.658203 -0.75586,-2.619141 -0.75,-0.960937 -2.03906,-0.960937 z m 0,-0.960938 q 1.83984,0 2.94141,1.236328 1.10156,1.230469 1.10156,3.304688 0,2.068359 -1.10156,3.304687 -1.10157,1.230469 -2.94141,1.230469 -1.8457,0 -2.95313,-1.230469 -1.10156,-1.230468 -1.10156,-3.304687 0,-2.074219 1.10156,-3.304688 1.10743,-1.236328 2.95313,-1.236328 z"
       id="path66" />
    <path
       d="m 85.792969,32.240234 h 5.53125 v 0.996094 h -4.347657 v 2.589844 h 4.166016 v 0.996094 h -4.166016 v 3.169921 h 4.453125 v 0.996094 h -5.636718 z"
       id="path68" />
    <path
       d="m 98.619141,32.527344 v 1.154297 Q 97.945312,33.359375 97.347656,33.201172 96.75,33.042969 96.193359,33.042969 q -0.966797,0 -1.49414,0.375 -0.521485,0.375 -0.521485,1.066406 0,0.580078 0.345703,0.878906 0.351563,0.292969 1.324219,0.47461 l 0.714844,0.146484 q 1.324219,0.251953 1.951172,0.890625 0.632812,0.632812 0.632812,1.699219 0,1.271484 -0.855468,1.927734 -0.84961,0.65625 -2.496094,0.65625 -0.621094,0 -1.324219,-0.140625 -0.697266,-0.140625 -1.447266,-0.416016 v -1.21875 q 0.720704,0.404297 1.41211,0.609375 0.691406,0.205079 1.359375,0.205079 1.013672,0 1.564453,-0.398438 0.550781,-0.398437 0.550781,-1.136719 0,-0.644531 -0.398437,-1.007812 -0.392578,-0.363281 -1.294922,-0.544922 L 95.496094,36.96875 q -1.324219,-0.263672 -1.916016,-0.826172 -0.591797,-0.5625 -0.591797,-1.564453 0,-1.160156 0.814453,-1.828125 0.820313,-0.667969 2.25586,-0.667969 0.615234,0 1.253906,0.111328 0.638672,0.111328 1.306641,0.333985 z"
       id="path70" />
    <path
       d="M 102.17578,33.212891 V 36.5 h 1.48828 q 0.82617,0 1.27735,-0.427734 0.45117,-0.427735 0.45117,-1.21875 0,-0.785157 -0.45117,-1.212891 -0.45118,-0.427734 -1.27735,-0.427734 z m -1.18359,-0.972657 h 2.67187 q 1.47071,0 2.22071,0.667969 0.75586,0.662109 0.75586,1.945313 0,1.294921 -0.75586,1.957031 -0.75,0.662109 -2.22071,0.662109 h -1.48828 v 3.515625 h -1.18359 z"
       id="path72" />
    <path
       d="m 111.91992,36.271484 q 0.84961,0.181641 1.32422,0.75586 0.48047,0.574218 0.48047,1.417968 0,1.294922 -0.89063,2.003907 -0.89062,0.708984 -2.53125,0.708984 -0.55078,0 -1.13671,-0.111328 -0.58008,-0.105469 -1.20118,-0.322266 v -1.142578 q 0.49219,0.28711 1.07813,0.433594 0.58594,0.146484 1.22461,0.146484 1.11328,0 1.69336,-0.439453 0.58594,-0.439453 0.58594,-1.277344 0,-0.773437 -0.54493,-1.207031 -0.53906,-0.439453 -1.50586,-0.439453 h -1.01953 v -0.972656 h 1.06641 q 0.87305,0 1.33594,-0.345703 0.46289,-0.351563 0.46289,-1.007813 0,-0.673828 -0.48047,-1.03125 -0.47461,-0.363281 -1.36524,-0.363281 -0.48632,0 -1.04296,0.105469 -0.55665,0.105468 -1.22461,0.328125 v -1.054688 q 0.67382,-0.1875 1.25976,-0.28125 0.5918,-0.09375 1.11328,-0.09375 1.34766,0 2.13282,0.615235 0.78515,0.609375 0.78515,1.652343 0,0.726563 -0.41601,1.230469 -0.41602,0.498047 -1.1836,0.691406 z"
       id="path74" />
    <path
       d="m 116.98828,39.992187 h 4.13086 v 0.996094 h -5.55469 v -0.996094 q 0.67383,-0.697265 1.83399,-1.86914 1.16601,-1.177735 1.46484,-1.517578 0.56836,-0.638672 0.79102,-1.078125 0.22851,-0.445313 0.22851,-0.873047 0,-0.697266 -0.49218,-1.136719 -0.48633,-0.439453 -1.27149,-0.439453 -0.55664,0 -1.17773,0.193359 -0.61524,0.19336 -1.31836,0.585938 v -1.195313 q 0.71484,-0.287109 1.33593,-0.433593 0.6211,-0.146485 1.13672,-0.146485 1.35938,0 2.16797,0.679688 0.8086,0.679687 0.8086,1.816406 0,0.539062 -0.20508,1.025391 -0.19922,0.480468 -0.73242,1.136718 -0.14649,0.169922 -0.93164,0.984375 -0.78516,0.808594 -2.21485,2.267578 z"
       id="path76" />
  </g>
</svg>
